<svg xmlns="http://www.w3.org/2000/svg" width="56" height="56" viewBox="0 0 56 56" fill="none">
  <g clip-path="url(#clip0_43_15)">
    <path d="M55.7736 28.861C49.4782 40.0097 39.0949 46.6667 27.9999 46.6667C16.9049 46.6667 6.52157 40.0097 0.226238 28.861C-0.0747617 28.3267 -0.0747617 27.6757 0.226238 27.1413C6.52157 15.9903 16.9049 9.33334 27.9999 9.33334C39.0949 9.33334 49.4782 15.9903 55.7736 27.139C56.0746 27.6733 56.0746 28.3267 55.7736 28.861ZM27.9999 18.6667C22.8526 18.6667 18.6666 22.8527 18.6666 28C18.6666 33.1473 22.8526 37.3333 27.9999 37.3333C33.1472 37.3333 37.3332 33.1473 37.3332 28C37.3332 22.8527 33.1472 18.6667 27.9999 18.6667Z" fill="black"/>
    <path d="M53.6666 37.3333C52.3786 37.3333 51.3333 38.3787 51.3333 39.6667V49C51.3333 50.2857 50.2856 51.3333 48.9999 51.3333H39.6666C38.3786 51.3333 37.3333 52.3787 37.3333 53.6667C37.3333 54.9547 38.3786 56 39.6666 56H48.9999C52.8593 56 55.9999 52.8593 55.9999 49V39.6667C55.9999 38.3787 54.9546 37.3333 53.6666 37.3333Z" fill="black"/>
    <path d="M2.33333 37.3333C1.04533 37.3333 0 38.3787 0 39.6667V49C0 52.8593 3.14067 56 7 56H16.3333C17.6213 56 18.6667 54.9547 18.6667 53.6667C18.6667 52.3787 17.6213 51.3333 16.3333 51.3333H7C5.71433 51.3333 4.66667 50.2857 4.66667 49V39.6667C4.66667 38.3787 3.62133 37.3333 2.33333 37.3333Z" fill="black"/>
    <path d="M48.9999 -7.62939e-06H39.6666C38.3786 -7.62939e-06 37.3333 1.04533 37.3333 2.33333C37.3333 3.62133 38.3786 4.66666 39.6666 4.66666H48.9999C50.2856 4.66666 51.3333 5.71433 51.3333 6.99999V16.3333C51.3333 17.6213 52.3786 18.6667 53.6666 18.6667C54.9546 18.6667 55.9999 17.6213 55.9999 16.3333V6.99999C55.9999 3.14066 52.8593 -7.62939e-06 48.9999 -7.62939e-06Z" fill="black"/>
    <path d="M16.3333 -7.62939e-06H7C3.14067 -7.62939e-06 0 3.14066 0 6.99999V16.3333C0 17.6213 1.04533 18.6667 2.33333 18.6667C3.62133 18.6667 4.66667 17.6213 4.66667 16.3333V6.99999C4.66667 5.71433 5.71433 4.66666 7 4.66666H16.3333C17.6213 4.66666 18.6667 3.62133 18.6667 2.33333C18.6667 1.04533 17.6213 -7.62939e-06 16.3333 -7.62939e-06Z" fill="black"/>
  </g>
  <defs>
    <clipPath id="clip0_43_15">
      <rect width="56" height="56" fill="white" transform="matrix(1 0 0 -1 0 56)"/>
    </clipPath>
  </defs>
</svg>