<svg xmlns="http://www.w3.org/2000/svg" width="50" height="50" viewBox="0 0 50 50" fill="none">
  <g clip-path="url(#clip0_42_127)">
    <path d="M15.3748 22.2756C17.6645 27.3286 22.5665 29.5281 24.9997 29.5281C26.5995 29.5281 29.2667 28.5764 31.557 26.4888C30.7196 26.5472 29.8246 26.5768 28.8681 26.5768C28.6437 26.5768 28.4083 26.5748 28.1567 26.5708C27.6745 26.9421 27.0773 27.1515 26.4575 27.1515H24.4197C22.884 27.1515 21.6347 25.9021 21.6347 24.3664C21.6347 22.8307 22.884 21.5814 24.4197 21.5814H26.4575C27.1937 21.5814 27.8822 21.8683 28.3929 22.3633C28.5626 22.3652 28.7298 22.366 28.894 22.366C31.5246 22.366 33.2583 22.1247 34.3924 21.8337C34.2453 21.4757 34.1651 21.0841 34.1651 20.6751V13.6138C34.1651 12.8793 34.4378 12.1751 34.9092 11.6312C34.6576 9.67283 34.201 8.17775 33.5195 7.07489C32.1153 4.80218 29.408 3.74374 24.9997 3.74374C21.3426 3.74374 18.8172 4.50289 17.2794 6.06454C16.0872 7.27514 15.3964 9.00253 15.0735 11.6113C15.5555 12.1573 15.8343 12.8687 15.8343 13.6138V20.6751C15.8344 21.2627 15.6655 21.811 15.3748 22.2756Z" fill="black"/>
    <path d="M10.3645 22.3422H12.809C13.7293 22.3422 14.476 21.5958 14.476 20.6751V13.6138C14.476 12.9987 14.1419 12.4627 13.6463 12.1739C14.1922 6.39182 16.4234 2.38506 24.9999 2.38506C29.9251 2.38506 32.9996 3.64851 34.6755 6.36084C35.6507 7.9392 36.1198 9.97783 36.3389 12.1826C35.8512 12.4735 35.5238 13.0047 35.5238 13.6137V20.675C35.5238 21.4688 36.0791 22.1316 36.8221 22.2997C35.7445 23.0045 33.5135 23.7244 28.8941 23.7244C28.5199 23.7244 28.1299 23.7196 27.7237 23.7099C27.4859 23.2527 27.0088 22.9398 26.4578 22.9398H24.4201C23.6324 22.9398 22.9936 23.5785 22.9936 24.3663C22.9936 25.1541 23.6324 25.7928 24.4201 25.7928H26.4578C26.9338 25.7928 27.3544 25.5587 27.6134 25.2005C28.0424 25.2113 28.4625 25.2181 28.8684 25.2181C34.0754 25.218 37.3855 24.3292 38.7261 22.5658C38.7832 22.4908 38.8352 22.4161 38.8826 22.3422H39.6357C40.5561 22.3422 41.3026 21.5958 41.3026 20.6751V13.6138C41.3026 12.6933 40.5562 11.9469 39.6357 11.9469H38.7162C38.4575 9.28307 37.8841 7.01539 36.7046 5.1069C34.5815 1.67047 30.7526 0 24.9998 0C19.2466 0 15.4181 1.67047 13.2949 5.10704C12.1155 7.01552 11.5423 9.28293 11.2835 11.947H10.3643C9.44365 11.947 8.69727 12.6933 8.69727 13.614V20.6753C8.69727 21.5958 9.44379 22.3422 10.3645 22.3422Z" fill="black"/>
    <path d="M45.1536 43.1065C44.5993 39.6603 43.4582 35.2211 41.1698 33.6438C39.6093 32.5677 34.1616 29.657 31.8353 28.4142L31.7864 28.3881C31.5202 28.2459 31.1953 28.2744 30.958 28.4607C29.7376 29.4186 28.4016 30.0639 26.9872 30.3787C26.7373 30.4342 26.532 30.6121 26.4411 30.8515L24.9998 34.6501L23.5585 30.8515C23.4677 30.6119 23.2624 30.4342 23.0124 30.3787C21.598 30.0639 20.2618 29.4186 19.0412 28.4607C18.804 28.2743 18.4791 28.2458 18.2129 28.3881C15.9127 29.6171 10.3944 32.5889 8.8364 33.6392C6.20096 35.4147 5.05 41.8372 4.84609 43.1066C4.82584 43.2325 4.83753 43.3613 4.88005 43.4814C4.97433 43.7477 7.39173 50.0001 24.9997 50.0001C42.6074 50.0001 45.025 43.7477 45.1194 43.4816C45.1621 43.3612 45.1738 43.2323 45.1536 43.1065ZM36.955 39.149H29.9811V37.6803H36.955V39.149Z" fill="black"/>
  </g>
  <defs>
    <clipPath id="clip0_42_127">
      <rect width="50" height="50" fill="white"/>
    </clipPath>
  </defs>
</svg>